<svg xmlns="http://www.w3.org/2000/svg" width="243" height="181" viewBox="0 0 243 181" fill="none">
  <g clip-path="url(#clip0_10_281)">
    <path d="M221.194 165.234C216.535 169.966 211.198 174.051 205.338 177.37C205.204 177.448 205.067 177.522 204.93 177.598L195.444 169.632C195.543 169.545 195.654 169.446 195.772 169.338C202.841 162.97 237.93 118.45 240.269 107.609C240.107 108.512 242.378 143.932 221.194 165.234Z" fill="#F0F0F0"/>
    <path d="M207.168 178.907C206.989 178.947 206.807 178.985 206.623 179.02L199.507 173.044C199.646 172.998 199.808 172.943 199.994 172.883C203.048 171.857 212.142 168.76 221.193 165.233C230.918 161.442 240.596 157.158 242.678 154.414C242.231 155.052 228.477 174.386 207.168 178.907Z" fill="#F0F0F0"/>
    <path d="M221.062 47.4034H220.048V21.063C220.048 19.061 219.633 17.0786 218.825 15.229C218.018 13.3794 216.834 11.6988 215.342 10.2831C213.85 8.8675 212.078 7.74455 210.129 6.97841C208.179 6.21227 206.09 5.81795 203.979 5.81795H145.157C143.046 5.81794 140.957 6.21226 139.007 6.9784C137.058 7.74453 135.286 8.86747 133.794 10.2831C132.302 11.6987 131.118 13.3793 130.311 15.229C129.503 17.0786 129.087 19.061 129.087 21.063V165.568C129.087 167.57 129.503 169.553 130.311 171.402C131.118 173.252 132.302 174.933 133.794 176.348C135.286 177.764 137.058 178.887 139.007 179.653C140.957 180.419 143.046 180.813 145.157 180.813H203.979C206.089 180.813 208.179 180.419 210.129 179.653C212.078 178.887 213.85 177.764 215.342 176.348C216.834 174.933 218.018 173.252 218.825 171.402C219.633 169.553 220.048 167.57 220.048 165.568V66.1529H221.062V47.4034Z" fill="#3F3D56"/>
    <path d="M216.628 21.1678V165.463C216.628 166.958 216.317 168.438 215.714 169.82C215.111 171.201 214.227 172.456 213.112 173.513C211.998 174.57 210.675 175.408 209.218 175.98C207.762 176.552 206.202 176.846 204.626 176.845H145.52C143.944 176.845 142.384 176.551 140.929 175.979C139.473 175.407 138.15 174.569 137.036 173.512C135.922 172.455 135.038 171.2 134.435 169.819C133.832 168.438 133.522 166.957 133.522 165.463V21.1678C133.522 19.673 133.832 18.1928 134.435 16.8117C135.038 15.4307 135.922 14.1758 137.036 13.1189C138.15 12.0619 139.473 11.2234 140.929 10.6515C142.384 10.0795 143.944 9.78514 145.52 9.78525H152.693C152.341 10.6066 152.207 11.4974 152.303 12.3794C152.399 13.2614 152.722 14.1074 153.243 14.8432C153.764 15.579 154.469 16.182 155.293 16.5991C156.118 17.0162 157.038 17.2347 157.973 17.2353H191.671C192.606 17.2361 193.527 17.0186 194.352 16.6019C195.178 16.1852 195.883 15.5821 196.404 14.8459C196.926 14.1096 197.249 13.2629 197.344 12.3803C197.439 11.4978 197.304 10.6065 196.951 9.78525H204.626C206.202 9.7847 207.762 10.0787 209.218 10.6505C210.675 11.2223 211.998 12.0606 213.112 13.1177C214.227 14.1747 215.111 15.4297 215.714 16.8109C216.317 18.1922 216.628 19.6726 216.628 21.1678Z" fill="white"/>
    <path d="M198.242 96.1511H146.29C145.38 96.1501 144.508 95.8068 143.864 95.1963C143.221 94.5859 142.859 93.7582 142.858 92.8949V91.2742C142.859 90.4109 143.221 89.5832 143.864 88.9728C144.508 88.3623 145.38 88.019 146.29 88.018H198.242C199.152 88.019 200.025 88.3623 200.668 88.9728C201.311 89.5832 201.673 90.4109 201.674 91.2742V92.8949C201.673 93.7582 201.311 94.5859 200.668 95.1963C200.025 95.8068 199.152 96.1501 198.242 96.1511Z" fill="#F0F0F0"/>
    <path d="M198.242 110.122H146.29C145.38 110.121 144.508 109.778 143.864 109.168C143.221 108.557 142.859 107.73 142.858 106.866V105.246C142.859 104.382 143.221 103.555 143.864 102.944C144.508 102.334 145.38 101.99 146.29 101.989H198.242C199.152 101.99 200.025 102.334 200.668 102.944C201.311 103.555 201.673 104.382 201.674 105.246V106.866C201.673 107.73 201.311 108.557 200.668 109.168C200.025 109.778 199.152 110.121 198.242 110.122Z" fill="#F0F0F0"/>
    <path d="M200.841 93.0264H148.889C147.933 93.0254 147.017 92.6648 146.342 92.0239C145.666 91.3829 145.286 90.5139 145.285 89.6074V87.9867C145.286 87.0802 145.666 86.2112 146.342 85.5702C147.017 84.9293 147.933 84.5687 148.889 84.5677H200.841C201.796 84.5687 202.712 84.9293 203.388 85.5702C204.064 86.2112 204.444 87.0802 204.445 87.9867V89.6074C204.444 90.5139 204.064 91.3829 203.388 92.0239C202.712 92.6648 201.796 93.0254 200.841 93.0264ZM148.889 85.2189C148.115 85.2197 147.374 85.5116 146.827 86.0305C146.28 86.5494 145.972 87.2529 145.971 87.9867V89.6074C145.972 90.3412 146.28 91.0448 146.827 91.5636C147.374 92.0825 148.115 92.3744 148.889 92.3752H200.841C201.614 92.3744 202.356 92.0825 202.903 91.5636C203.45 91.0448 203.757 90.3412 203.758 89.6074V87.9867C203.757 87.2529 203.45 86.5494 202.903 86.0305C202.356 85.5116 201.614 85.2197 200.841 85.2189H148.889Z" fill="#3F3D56"/>
    <path d="M200.841 106.998H148.889C147.933 106.997 147.017 106.636 146.342 105.995C145.666 105.354 145.286 104.485 145.285 103.579V101.958C145.286 101.052 145.666 100.183 146.342 99.5416C147.017 98.9006 147.933 98.5401 148.889 98.539H200.841C201.796 98.5401 202.712 98.9006 203.388 99.5416C204.064 100.183 204.444 101.052 204.445 101.958V103.579C204.444 104.485 204.064 105.354 203.388 105.995C202.712 106.636 201.796 106.997 200.841 106.998ZM148.889 99.1903C148.115 99.1911 147.374 99.4829 146.827 100.002C146.28 100.521 145.972 101.224 145.971 101.958V103.579C145.972 104.313 146.28 105.016 146.827 105.535C147.374 106.054 148.115 106.346 148.889 106.347H200.841C201.614 106.346 202.356 106.054 202.903 105.535C203.45 105.016 203.757 104.313 203.758 103.579V101.958C203.757 101.224 203.45 100.521 202.903 100.002C202.356 99.4829 201.614 99.1911 200.841 99.1903H148.889Z" fill="#3F3D56"/>
    <path d="M216.628 21.1678V52.5539C211.371 53.866 205.867 54.0165 200.54 52.9939C195.212 51.9714 190.202 49.803 185.897 46.6555C181.591 43.5081 178.104 39.4655 175.703 34.8388C173.302 30.2122 172.053 25.1247 172.05 19.9679C172.05 19.0474 172.089 18.1365 172.167 17.2353H191.671C192.606 17.2361 193.527 17.0186 194.352 16.6019C195.178 16.1852 195.883 15.5821 196.404 14.8459C196.926 14.1096 197.249 13.2629 197.344 12.3803C197.439 11.4978 197.304 10.6065 196.951 9.78525H204.626C206.202 9.7847 207.762 10.0787 209.218 10.6505C210.675 11.2223 211.998 12.0606 213.112 13.1177C214.227 14.1747 215.111 15.4297 215.714 16.8109C216.317 18.1922 216.628 19.6726 216.628 21.1678Z" fill="#F0F0F0"/>
    <path d="M163.387 174.885C163.387 175.547 163.361 176.2 163.305 176.845H145.52C143.944 176.845 142.384 176.551 140.929 175.979C139.473 175.407 138.15 174.569 137.036 173.512C135.922 172.455 135.038 171.2 134.435 169.819C133.832 168.438 133.522 166.957 133.522 165.463V150.028C137.25 149.569 141.038 149.868 144.635 150.906C148.231 151.944 151.553 153.698 154.379 156.05C157.205 158.402 159.47 161.298 161.023 164.546C162.577 167.794 163.382 171.319 163.387 174.885H163.387Z" fill="#F700C4"/>
    <path d="M19.9484 147.804C20.4481 148.012 21.0146 148.024 21.5236 147.837C22.0327 147.65 22.4426 147.279 22.6636 146.805L38.6849 112.357C39.0516 111.568 39.1636 110.695 39.0069 109.846C38.8501 108.997 38.4315 108.212 37.8041 107.589C37.1767 106.965 36.3687 106.533 35.4821 106.346C34.5956 106.158 33.6704 106.225 32.8236 106.536H32.8236C31.8452 106.891 31.0265 107.556 30.5068 108.418C30.4241 108.555 30.3491 108.695 30.2822 108.839L14.2609 143.288C14.1517 143.522 14.0923 143.775 14.0861 144.032C14.0799 144.288 14.1271 144.543 14.2248 144.783C14.3226 145.022 14.4691 145.24 14.6559 145.426C14.8427 145.611 15.0662 145.76 15.3137 145.864L19.9484 147.804Z" fill="#F700C4"/>
    <path d="M38.0272 126.499L22.1801 123.158L26.1024 113.314C26.7706 110.908 28.3257 108.809 30.4855 107.397C32.6453 105.986 35.2668 105.355 37.8745 105.621L38.0272 105.637L38.0272 126.499Z" fill="#2F2E41"/>
    <path d="M70.0358 148.296C69.5697 148.296 69.1138 148.167 68.7233 147.926C68.3327 147.684 68.0243 147.341 67.8351 146.936L51.8139 112.488C51.3044 111.392 51.257 110.152 51.6816 109.024C52.1061 107.896 52.9702 106.965 54.0962 106.423C55.2222 105.881 56.5243 105.769 57.7348 106.11C58.9452 106.451 59.9719 107.219 60.6036 108.256V108.256C60.6924 108.402 60.7729 108.553 60.8447 108.708L76.866 143.156C77.1232 143.709 77.1383 144.337 76.9079 144.9C76.6776 145.464 76.2207 145.918 75.6377 146.162L70.8459 148.167L70.8435 148.162C70.5844 148.251 70.3112 148.296 70.0358 148.296Z" fill="#F700C4"/>
    <path d="M47.8743 136.467C47.3283 136.468 46.8048 136.674 46.4188 137.04C46.0327 137.406 45.8156 137.903 45.8149 138.421V178.476C45.8156 178.994 46.0327 179.491 46.4188 179.857C46.8048 180.223 47.3283 180.429 47.8743 180.43H52.94C53.486 180.429 54.0095 180.223 54.3955 179.857C54.7816 179.491 54.9987 178.994 54.9994 178.476V138.421C54.9987 137.903 54.7816 137.406 54.3955 137.04C54.0095 136.674 53.486 136.468 52.94 136.467H47.8743Z" fill="#F700C4"/>
    <path d="M37.8549 136.467C37.3089 136.468 36.7854 136.674 36.3994 137.04C36.0133 137.406 35.7961 137.903 35.7955 138.421V178.476C35.7961 178.994 36.0133 179.491 36.3994 179.857C36.7854 180.223 37.3089 180.429 37.8549 180.43H42.9207C43.4667 180.429 43.9901 180.223 44.3762 179.857C44.7623 179.491 44.9794 178.994 44.98 178.476V138.421C44.9794 137.903 44.7623 137.406 44.3762 137.04C43.9901 136.674 43.4667 136.468 42.9207 136.467H37.8549Z" fill="#F700C4"/>
    <path d="M45.2461 94.5019C54.9134 94.5019 62.7504 87.067 62.7504 77.8955C62.7504 68.724 54.9134 61.289 45.2461 61.289C35.5788 61.289 27.7419 68.724 27.7419 77.8955C27.7419 87.067 35.5788 94.5019 45.2461 94.5019Z" fill="#F700C4"/>
    <path d="M51.0711 84.8666C52.2058 84.8367 53.618 84.7993 54.7059 84.0454C55.0298 83.8117 55.296 83.5136 55.4857 83.172C55.6754 82.8304 55.7841 82.4536 55.8042 82.068C55.8239 81.7939 55.7765 81.5193 55.6657 81.2655C55.5549 81.0117 55.3838 80.7856 55.1657 80.6049C54.5975 80.1494 53.7677 80.0426 52.8736 80.2919L53.8 73.8689L53.1199 73.7805L52.0308 81.3315L52.5987 81.0843C53.2571 80.7978 54.1609 80.652 54.7226 81.1023C54.8605 81.22 54.9679 81.3663 55.0366 81.5298C55.1052 81.6933 55.1331 81.8697 55.1182 82.0451C55.1016 82.3321 55.0199 82.6124 54.8789 82.8668C54.7379 83.1212 54.5408 83.3438 54.3009 83.5194C53.4543 84.1061 52.3287 84.1818 51.0521 84.2157L51.0711 84.8666Z" fill="#2F2E41"/>
    <path d="M60.8603 74.4228H57.1633V75.0741H60.8603V74.4228Z" fill="#2F2E41"/>
    <path d="M49.1908 74.4228H45.4938V75.0741H49.1908V74.4228Z" fill="#2F2E41"/>
    <path d="M62.5902 148.499L56.2901 104.866C56.2225 104.398 55.9786 103.969 55.6035 103.659C55.2284 103.348 54.7475 103.177 54.2497 103.177H49.4942C49.5141 103.07 49.5244 102.961 49.5251 102.852V101.224C49.5251 100.706 49.3081 100.209 48.9219 99.8423C48.5357 99.4759 48.0119 99.2701 47.4658 99.2701H43.3471C42.801 99.2701 42.2772 99.4759 41.891 99.8423C41.5048 100.209 41.2878 100.706 41.2878 101.224V102.852C41.2885 102.961 41.2988 103.07 41.3186 103.177H36.5631C36.0654 103.177 35.5845 103.349 35.2094 103.659C34.8343 103.969 34.5904 104.398 34.5228 104.866L28.2226 148.499C28.1827 148.775 28.2056 149.056 28.2899 149.324C28.3741 149.591 28.5177 149.838 28.711 150.048C28.9043 150.258 29.1428 150.427 29.4105 150.542C29.6782 150.658 29.9688 150.718 30.2628 150.718H60.55C60.844 150.718 61.1347 150.658 61.4023 150.542C61.67 150.427 61.9085 150.258 62.1018 150.048C62.2951 149.838 62.4387 149.591 62.523 149.324C62.6072 149.056 62.6301 148.775 62.5902 148.499Z" fill="#2F2E41"/>
    <path d="M52.7856 126.499V105.637L52.9383 105.621C55.5493 105.356 58.1737 105.988 60.3349 107.403C62.4961 108.818 64.0506 110.921 64.7161 113.331L68.6327 123.158L52.7856 126.499Z" fill="#2F2E41"/>
    <path d="M44.3646 95.0201L32.2574 90.5618C30.2776 89.8328 28.2867 89.126 26.3174 88.3718C25.4739 88.093 24.6968 87.6585 24.031 87.0934C23.4514 86.5113 23.0564 85.786 22.8912 85.0007C22.4713 83.3168 22.5472 81.4758 22.5771 79.7574C22.6004 77.8776 22.7634 76.0016 23.0651 74.1436C23.5938 70.6519 24.8355 67.2917 26.7205 64.2512C30.1159 58.9659 35.9659 54.9894 42.695 55.3068C45.8103 55.4537 48.9435 56.5143 51.2581 58.535C51.4995 58.8087 51.7704 59.0578 52.0664 59.2782C52.2721 59.3514 52.496 59.3656 52.7102 59.3192C52.9926 59.3019 53.2753 59.2888 53.5582 59.2797C54.5399 59.2404 55.5233 59.2796 56.4981 59.3967C58.2745 59.5788 59.9581 60.242 61.3479 61.3072C62.5046 62.2512 63.4458 63.5838 63.5426 65.0648C63.5894 65.7446 63.4709 66.4256 63.1963 67.0551C62.9217 67.6846 62.4984 68.2459 61.9589 68.6956C60.5145 69.8505 58.4536 69.4446 56.7209 69.3575L50.3735 69.0385L47.1574 68.8768C46.4952 68.8436 46.4972 69.8205 47.1574 69.8537L55.7053 70.2833C57.0789 70.3524 58.4946 70.5216 59.8694 70.4434C60.9257 70.398 61.9343 70.0131 62.7295 69.3518C63.4557 68.7189 63.9967 67.9183 64.2996 67.028C64.6026 66.1377 64.6572 65.1881 64.4582 64.2718C64.0175 62.2733 62.4497 60.6201 60.6118 59.6366C58.1111 58.2984 55.1244 58.1702 52.3262 58.368L52.6903 58.5111C49.525 55.2881 44.6766 53.9273 40.1249 54.4035C35.319 54.9063 31.0446 57.4499 27.9735 60.9281C24.5494 64.806 22.6834 69.6414 21.958 74.6137C21.5805 77.2983 21.4563 80.0094 21.5867 82.715C21.5813 83.9081 21.7965 85.093 22.2224 86.2157C22.7084 87.3083 23.5871 88.2021 24.7022 88.738C25.9807 89.3235 27.295 89.8357 28.6382 90.2719L33.0988 91.9144L41.8606 95.1408L44.0909 95.9621C44.709 96.1897 44.9767 95.2456 44.3646 95.0201Z" fill="#2F2E41"/>
    <path d="M25.328 61.8241C24.2759 61.8241 23.2473 61.5281 22.3724 60.9735C21.4976 60.419 20.8157 59.6307 20.4131 58.7085C20.0104 57.7863 19.9051 56.7715 20.1103 55.7924C20.3156 54.8134 20.8223 53.9141 21.5663 53.2082C22.3103 52.5024 23.2582 52.0217 24.2902 51.827C25.3221 51.6322 26.3918 51.7322 27.3639 52.1142C28.336 52.4962 29.1668 53.1431 29.7514 53.9731C30.3359 54.803 30.648 55.7788 30.648 56.7771C30.6464 58.1152 30.0854 59.398 29.088 60.3442C28.0907 61.2904 26.7385 61.8226 25.328 61.8241ZM25.328 52.7068C24.4795 52.7068 23.65 52.9455 22.9445 53.3928C22.239 53.84 21.6891 54.4757 21.3644 55.2194C21.0396 55.9632 20.9547 56.7816 21.1202 57.5711C21.2858 58.3607 21.6944 59.0859 22.2944 59.6551C22.8944 60.2244 23.6588 60.612 24.491 60.7691C25.3233 60.9261 26.1859 60.8455 26.9698 60.5374C27.7538 60.2294 28.4238 59.7077 28.8953 59.0383C29.3667 58.369 29.6183 57.5821 29.6183 56.7771C29.617 55.6979 29.1646 54.6634 28.3603 53.9003C27.556 53.1373 26.4655 52.708 25.328 52.7068Z" fill="#2F2E41"/>
    <path d="M114.258 93.1013L102.743 84.7462L93.9364 95.6703L105.451 104.025L114.258 93.1013Z" fill="#F0F0F0"/>
    <path d="M49.1819 18.517C51.0012 18.5157 52.7956 18.9185 54.4213 19.6933C56.047 20.468 57.459 21.5932 58.544 22.9787L65.2676 14.6384L45.0935 0L29.6639 19.1395L38.3588 25.4486C39.229 23.4012 40.7243 21.6474 42.6528 20.4123C44.5814 19.1772 46.855 18.5172 49.1819 18.517Z" fill="#F0F0F0"/>
    <path d="M242.657 181H0.34322C0.252193 181 0.164893 180.966 0.100527 180.905C0.0361604 180.844 0 180.761 0 180.674C0 180.588 0.0361604 180.505 0.100527 180.444C0.164893 180.383 0.252193 180.349 0.34322 180.349H242.657C242.748 180.349 242.835 180.383 242.899 180.444C242.964 180.505 243 180.588 243 180.674C243 180.761 242.964 180.844 242.899 180.905C242.835 180.966 242.748 181 242.657 181Z" fill="#3F3D56"/>
    <path d="M183.516 126.97H158.851C157.941 126.969 157.069 126.626 156.425 126.015C155.782 125.405 155.42 124.577 155.419 123.714V122.093C155.42 121.23 155.782 120.402 156.425 119.792C157.069 119.181 157.941 118.838 158.851 118.837H183.516C184.426 118.838 185.298 119.181 185.941 119.792C186.585 120.402 186.947 121.23 186.948 122.093V123.714C186.947 124.577 186.585 125.405 185.941 126.015C185.298 126.626 184.426 126.969 183.516 126.97Z" fill="#F700C4"/>
    <path d="M186.114 123.846H161.45C160.494 123.845 159.578 123.484 158.903 122.843C158.227 122.202 157.847 121.333 157.846 120.427V118.806C157.847 117.899 158.227 117.03 158.903 116.389C159.578 115.748 160.494 115.388 161.45 115.387H186.114C187.07 115.388 187.986 115.748 188.661 116.389C189.337 117.03 189.717 117.899 189.718 118.806V120.427C189.717 121.333 189.337 122.202 188.661 122.843C187.986 123.484 187.07 123.845 186.114 123.846ZM161.45 116.038C160.676 116.039 159.935 116.331 159.388 116.85C158.841 117.369 158.533 118.072 158.532 118.806V120.427C158.533 121.16 158.841 121.864 159.388 122.383C159.935 122.902 160.676 123.194 161.45 123.194H186.114C186.888 123.194 187.629 122.902 188.176 122.383C188.723 121.864 189.031 121.16 189.032 120.427V118.806C189.031 118.072 188.723 117.369 188.176 116.85C187.629 116.331 186.888 116.039 186.114 116.038H161.45Z" fill="#3F3D56"/>
  </g>
  <defs>
    <clipPath id="clip0_10_281">
      <rect width="243" height="181" fill="white"/>
    </clipPath>
  </defs>
</svg>