<svg xmlns="http://www.w3.org/2000/svg" width="53" height="56" viewBox="0 0 53 56" fill="none">
  <g clip-path="url(#clip0_10_246)">
    <path d="M14.1402 15.1803C13.1006 15.4908 12.1486 16.0652 11.3672 16.8535C10.5857 17.6418 9.99863 18.62 9.65697 19.703L0 50.3127L1.52064 51.9194L17.0594 35.5011C16.7499 34.8164 16.5625 34.0595 16.5625 33.2502C16.5625 30.3506 18.7871 28.0002 21.5312 28.0002C24.2754 28.0002 26.5 30.3506 26.5 33.2502C26.5 36.1497 24.2754 38.5002 21.5312 38.5002C20.7652 38.5002 20.0489 38.3022 19.4009 37.9752L3.86217 54.3934L5.38281 56.0002L34.3527 45.7966C35.3776 45.4356 36.3035 44.8152 37.0495 43.9896C37.7956 43.1639 38.3392 42.158 38.6331 41.0595L43.0625 24.5002L29.8125 10.5002L14.1402 15.1803ZM51.5446 8.1125L45.3222 1.53796C43.3813 -0.512817 40.2334 -0.512817 38.2925 1.53796L32.4387 7.72312L45.6908 21.7253L51.5446 15.5402C53.4855 13.4894 53.4855 10.1644 51.5446 8.1125Z" fill="black"/>
  </g>
  <defs>
    <clipPath id="clip0_10_246">
      <rect width="53" height="56" fill="white"/>
    </clipPath>
  </defs>
</svg>